<svg xmlns="http://www.w3.org/2000/svg" viewBox="0 0 810 810" role="img" aria-label="Softbade SB favicon"><rect width="810" height="810" fill="#0A0A0A"/><defs><linearGradient id="sbGradient" x1="0" y1="0" x2="810" y2="0" gradientUnits="userSpaceOnUse"><stop offset="0" stop-color="#4F8CFF"/><stop offset="1" stop-color="#8BC4FF"/></linearGradient></defs><g transform="translate(0 34.5)"><path d="M210 36L576 36L576 37L580 37L580 38L592 38L592 39L599 39L599 40L601 40L601 41L607 41L607 42L608 42L608 43L613 43L613 44L617 44L617 45L618 45L618 46L622 46L622 47L624 47L624 48L627 48L627 49L629 49L629 50L631 50L631 51L634 51L634 52L636 52L636 53L638 53L638 54L640 54L640 55L642 55L642 56L643 56L643 57L645 57L645 58L647 58L647 59L649 59L649 60L650 60L650 61L652 61L652 62L654 62L654 63L655 63L655 64L657 64L657 65L658 65L658 66L659 66L659 67L661 67L661 68L662 68L662 69L664 69L664 70L665 70L665 71L666 71L666 72L667 72L667 73L669 73L669 74L670 74L670 75L671 75L671 76L672 76L672 77L673 77L673 78L675 78L675 79L676 79L676 80L677 80L677 81L678 81L678 82L679 82L679 83L680 83L680 84L681 84L681 85L682 85L682 86L683 86L683 87L684 87L684 88L685 88L685 89L686 89L686 90L687 90L687 91L688 91L688 92L689 92L689 94L690 94L690 95L691 95L691 96L692 96L692 97L693 97L693 99L694 99L694 100L695 100L695 101L696 101L696 102L697 102L697 104L698 104L698 105L699 105L699 107L700 107L700 108L701 108L701 109L702 109L702 111L703 111L703 112L704 112L704 114L705 114L705 116L706 116L706 117L707 117L707 119L708 119L708 120L709 120L709 122L710 122L710 124L711 124L711 126L712 126L712 128L713 128L713 129L714 129L714 132L715 132L715 134L716 134L716 136L717 136L717 138L718 138L718 141L719 141L719 143L720 143L720 146L721 146L721 148L722 148L722 151L723 151L723 156L724 156L724 158L725 158L725 163L726 163L726 165L727 165L727 171L728 171L728 174L729 174L729 183L730 183L730 190L731 190L731 219L730 219L730 227L729 227L729 235L728 235L728 238L727 238L727 244L726 244L726 246L725 246L725 251L724 251L724 254L723 254L723 256L722 256L722 260L721 260L721 262L720 262L720 265L719 265L719 267L718 267L718 270L717 270L717 272L716 272L716 274L715 274L715 276L714 276L714 278L713 278L713 280L712 280L712 282L711 282L711 284L710 284L710 285L709 285L709 287L708 287L708 289L707 289L707 290L706 290L706 292L705 292L705 294L704 294L704 295L703 295L703 297L702 297L702 298L701 298L701 300L700 300L700 301L699 301L699 303L698 303L698 304L697 304L697 305L696 305L696 307L695 307L695 308L694 308L694 309L693 309L693 310L692 310L692 312L691 312L691 313L690 313L690 314L689 314L689 315L688 315L688 316L687 316L687 318L686 318L686 319L685 319L685 320L684 320L684 321L683 321L683 322L682 322L682 323L681 323L681 324L680 324L680 325L681 325L681 326L683 326L683 327L684 327L684 328L686 328L686 329L687 329L687 330L689 330L689 331L690 331L690 332L692 332L692 333L693 333L693 334L694 334L694 335L696 335L696 336L697 336L697 337L699 337L699 338L700 338L700 339L701 339L701 340L702 340L702 341L703 341L703 342L705 342L705 343L706 343L706 344L707 344L707 345L708 345L708 346L709 346L709 347L710 347L710 348L711 348L711 349L712 349L712 350L714 350L714 351L715 351L715 352L716 352L716 353L717 353L717 354L718 354L718 355L719 355L719 356L720 356L720 357L721 357L721 358L722 358L722 359L723 359L723 360L724 360L724 361L725 361L725 362L726 362L726 363L727 363L727 365L728 365L728 366L729 366L729 367L730 367L730 369L731 369L731 370L732 370L732 371L733 371L733 372L734 372L734 373L735 373L735 375L736 375L736 376L737 376L737 377L738 377L738 378L739 378L739 380L740 380L740 382L741 382L741 383L742 383L742 385L743 385L743 386L744 386L744 387L745 387L745 389L746 389L746 391L747 391L747 392L748 392L748 394L749 394L749 396L750 396L750 398L751 398L751 400L752 400L752 401L753 401L753 404L754 404L754 405L755 405L755 407L756 407L756 409L757 409L757 412L758 412L758 413L759 413L759 416L760 416L760 419L761 419L761 421L762 421L762 424L763 424L763 426L764 426L764 430L765 430L765 434L766 434L766 436L767 436L767 440L768 440L768 443L769 443L769 447L770 447L770 455L771 455L771 457L772 457L772 469L773 469L773 475L774 475L774 506L773 506L773 512L772 512L772 523L771 523L771 526L770 526L770 533L769 533L769 536L768 536L768 541L767 541L767 544L766 544L766 547L765 547L765 551L764 551L764 553L763 553L763 557L762 557L762 558L761 558L761 562L760 562L760 564L759 564L759 566L758 566L758 569L757 569L757 571L756 571L756 573L755 573L755 575L754 575L754 577L753 577L753 579L752 579L752 581L751 581L751 583L750 583L750 584L749 584L749 586L748 586L748 588L747 588L747 590L746 590L746 591L745 591L745 593L744 593L744 594L743 594L743 596L742 596L742 598L741 598L741 599L740 599L740 601L739 601L739 602L738 602L738 604L737 604L737 605L736 605L736 606L735 606L735 607L734 607L734 609L733 609L733 610L732 610L732 611L731 611L731 613L730 613L730 614L729 614L729 615L728 615L728 616L727 616L727 618L725 618L725 620L724 620L724 621L723 621L723 622L722 622L722 623L721 623L721 624L720 624L720 625L719 625L719 626L718 626L718 627L717 627L717 628L716 628L716 629L715 629L715 630L714 630L714 631L713 631L713 632L712 632L712 633L711 633L711 634L710 634L710 635L709 635L709 636L708 636L708 637L707 637L707 638L706 638L706 639L704 639L704 640L703 640L703 641L702 641L702 642L701 642L701 643L699 643L699 644L698 644L698 645L697 645L697 646L696 646L696 647L694 647L694 648L693 648L693 649L692 649L692 650L690 650L690 651L689 651L689 652L687 652L687 653L686 653L686 654L684 654L684 655L683 655L683 656L681 656L681 657L680 657L680 658L678 658L678 659L676 659L676 660L675 660L675 661L673 661L673 662L671 662L671 663L670 663L670 664L668 664L668 665L666 665L666 666L664 666L664 667L662 667L662 668L660 668L660 669L657 669L657 670L655 670L655 671L653 671L653 672L651 672L651 673L648 673L648 674L646 674L646 675L643 675L643 676L640 676L640 677L638 677L638 678L634 678L634 679L631 679L631 680L627 680L627 681L623 681L623 682L619 682L619 683L613 683L613 684L611 684L611 685L601 685L601 686L400 686L400 687L392 687L392 686L387 686L387 683L388 683L388 682L390 682L390 681L391 681L391 680L392 680L392 679L393 679L393 678L394 678L394 677L395 677L395 676L396 676L396 675L398 675L398 674L399 674L399 673L400 673L400 671L401 671L401 670L402 670L402 669L403 669L403 668L404 668L404 667L406 667L406 666L407 666L407 665L408 665L408 664L409 664L409 663L410 663L410 661L411 661L411 660L412 660L412 659L413 659L413 658L414 658L414 657L415 657L415 656L416 656L416 655L417 655L417 654L418 654L418 653L419 653L419 651L420 651L420 650L421 650L421 649L422 649L422 648L423 648L423 647L424 647L424 645L425 645L425 644L426 644L426 643L427 643L427 641L428 641L428 640L429 640L429 639L430 639L430 637L431 637L431 636L432 636L432 635L433 635L433 634L434 634L434 632L435 632L435 630L436 630L436 629L437 629L437 627L438 627L438 625L439 625L439 624L440 624L440 622L441 622L441 620L442 620L442 619L443 619L443 617L444 617L444 616L445 616L445 613L446 613L446 611L447 611L447 610L448 610L448 608L449 608L449 606L450 606L450 604L451 604L451 602L590 602L590 601L603 601L603 600L606 600L606 599L611 599L611 598L616 598L616 597L618 597L618 596L621 596L621 595L624 595L624 594L626 594L626 593L628 593L628 592L630 592L630 591L632 591L632 590L634 590L634 589L636 589L636 588L638 588L638 587L639 587L639 586L641 586L641 585L642 585L642 584L644 584L644 583L645 583L645 582L646 582L646 581L648 581L648 580L649 580L649 579L650 579L650 578L652 578L652 577L653 577L653 576L654 576L654 575L655 575L655 574L656 574L656 573L657 573L657 572L658 572L658 571L659 571L659 570L660 570L660 569L661 569L661 568L662 568L662 567L663 567L663 566L664 566L664 564L666 564L666 562L667 562L667 561L668 561L668 560L669 560L669 558L670 558L670 557L671 557L671 556L672 556L672 554L673 554L673 553L674 553L674 551L675 551L675 549L676 549L676 548L677 548L677 546L678 546L678 544L679 544L679 542L680 542L680 540L681 540L681 538L682 538L682 535L683 535L683 533L684 533L684 531L685 531L685 528L686 528L686 525L687 525L687 521L688 521L688 517L689 517L689 513L690 513L690 505L691 505L691 497L692 497L692 485L691 485L691 477L690 477L690 469L689 469L689 464L688 464L688 461L687 461L687 456L686 456L686 453L685 453L685 451L684 451L684 448L683 448L683 445L682 445L682 443L681 443L681 441L680 441L680 439L679 439L679 437L678 437L678 436L677 436L677 433L676 433L676 432L675 432L675 430L674 430L674 429L673 429L673 427L672 427L672 426L671 426L671 425L670 425L670 423L669 423L669 422L668 422L668 420L667 420L667 419L666 419L666 418L665 418L665 417L664 417L664 416L663 416L663 415L662 415L662 413L661 413L661 412L660 412L660 411L659 411L659 410L658 410L658 409L657 409L657 408L656 408L656 407L655 407L655 406L653 406L653 405L652 405L652 404L651 404L651 403L650 403L650 402L649 402L649 401L647 401L647 400L646 400L646 399L644 399L644 398L643 398L643 397L642 397L642 396L640 396L640 395L639 395L639 394L637 394L637 393L635 393L635 392L634 392L634 391L631 391L631 390L629 390L629 389L627 389L627 388L625 388L625 387L623 387L623 386L621 386L621 385L618 385L618 384L614 384L614 383L612 383L612 382L608 382L608 381L606 381L606 380L596 380L596 379L456 379L456 378L455 378L455 377L454 377L454 375L453 375L453 374L452 374L452 373L451 373L451 371L450 371L450 370L449 370L449 369L448 369L448 368L447 368L447 366L446 366L446 365L445 365L445 364L444 364L444 363L443 363L443 362L442 362L442 360L441 360L441 359L440 359L440 358L439 358L439 357L438 357L438 356L437 356L437 355L436 355L436 354L435 354L435 353L434 353L434 352L433 352L433 351L432 351L432 350L431 350L431 349L430 349L430 348L429 348L429 347L428 347L428 346L427 346L427 345L426 345L426 344L425 344L425 343L423 343L423 342L422 342L422 341L421 341L421 340L420 340L420 339L418 339L418 338L417 338L417 337L416 337L416 336L415 336L415 335L414 335L414 334L413 334L413 333L412 333L412 332L410 332L410 331L409 331L409 330L407 330L407 329L406 329L406 328L405 328L405 327L403 327L403 325L402 325L402 323L403 323L403 322L402 322L402 318L403 318L403 316L402 316L402 308L403 308L403 296L402 296L402 295L520 295L520 294L571 294L571 293L577 293L577 292L583 292L583 291L588 291L588 290L590 290L590 289L593 289L593 288L596 288L596 287L598 287L598 286L600 286L600 285L601 285L601 284L604 284L604 283L605 283L605 282L607 282L607 281L609 281L609 280L610 280L610 279L611 279L611 278L613 278L613 277L614 277L614 276L615 276L615 275L616 275L616 274L617 274L617 273L618 273L618 272L620 272L620 271L621 271L621 270L622 270L622 269L623 269L623 268L624 268L624 267L625 267L625 265L626 265L626 264L627 264L627 263L628 263L628 261L629 261L629 260L630 260L630 259L631 259L631 257L632 257L632 256L633 256L633 254L634 254L634 253L635 253L635 251L636 251L636 249L637 249L637 247L638 247L638 246L639 246L639 243L640 243L640 241L641 241L641 238L642 238L642 235L643 235L643 232L644 232L644 226L645 226L645 224L646 224L646 215L647 215L647 196L646 196L646 187L645 187L645 185L644 185L644 180L643 180L643 178L642 178L642 175L641 175L641 172L640 172L640 170L639 170L639 168L638 168L638 165L637 165L637 164L636 164L636 162L635 162L635 160L634 160L634 159L633 159L633 158L632 158L632 156L631 156L631 155L630 155L630 153L629 153L629 152L628 152L628 151L627 151L627 149L626 149L626 148L625 148L625 147L624 147L624 146L623 146L623 145L622 145L622 144L621 144L621 143L620 143L620 142L619 142L619 141L617 141L617 140L616 140L616 139L615 139L615 138L614 138L614 137L613 137L613 136L611 136L611 135L610 135L610 134L608 134L608 133L607 133L607 132L605 132L605 131L603 131L603 130L601 130L601 129L599 129L599 128L597 128L597 127L594 127L594 126L593 126L593 125L589 125L589 124L585 124L585 123L583 123L583 122L575 122L575 121L571 121L571 120L527 120L527 121L526 121L526 120L504 120L504 121L489 121L489 120L460 120L460 121L459 121L459 120L458 120L458 121L455 121L455 120L454 120L454 121L453 121L453 120L434 120L434 121L422 121L422 120L418 120L418 121L417 121L417 120L405 120L405 121L398 121L398 120L397 120L397 121L394 121L394 120L364 120L364 121L363 121L363 120L362 120L362 121L355 121L355 120L354 120L354 121L352 121L352 120L347 120L347 121L343 121L343 120L342 120L342 121L325 121L325 120L310 120L310 121L282 121L282 120L231 120L231 121L211 121L211 122L203 122L203 123L200 123L200 124L196 124L196 125L193 125L193 126L191 126L191 127L187 127L187 128L185 128L185 129L183 129L183 130L181 130L181 131L179 131L179 132L177 132L177 133L175 133L175 134L174 134L174 135L172 135L172 136L171 136L171 137L169 137L169 138L168 138L168 139L167 139L167 140L165 140L165 141L164 141L164 142L163 142L163 143L162 143L162 144L161 144L161 145L160 145L160 146L159 146L159 147L158 147L158 148L157 148L157 149L156 149L156 150L155 150L155 151L154 151L154 152L153 152L153 153L152 153L152 154L151 154L151 156L150 156L150 157L149 157L149 158L148 158L148 160L147 160L147 161L146 161L146 163L145 163L145 165L144 165L144 166L143 166L143 168L142 168L142 170L141 170L141 172L140 172L140 174L139 174L139 177L138 177L138 179L137 179L137 182L136 182L136 185L135 185L135 189L134 189L134 193L133 193L133 200L132 200L132 224L133 224L133 232L134 232L134 235L135 235L135 239L136 239L136 242L137 242L137 245L138 245L138 247L139 247L139 249L140 249L140 251L141 251L141 253L142 253L142 255L143 255L143 257L144 257L144 258L145 258L145 260L146 260L146 261L147 261L147 263L148 263L148 264L149 264L149 266L150 266L150 267L151 267L151 269L152 269L152 270L153 270L153 271L154 271L154 272L155 272L155 273L156 273L156 274L157 274L157 275L158 275L158 276L159 276L159 277L160 277L160 278L161 278L161 280L162 280L162 281L164 281L164 282L165 282L165 283L166 283L166 284L167 284L167 285L168 285L168 286L170 286L170 287L171 287L171 288L173 288L173 289L174 289L174 290L175 290L175 291L177 291L177 292L178 292L178 293L180 293L180 294L182 294L182 295L183 295L183 296L186 296L186 297L187 297L187 298L190 298L190 299L191 299L191 300L194 300L194 301L195 301L195 302L199 302L199 303L201 303L201 304L205 304L205 305L208 305L208 306L209 306L209 392L205 392L205 391L202 391L202 390L197 390L197 389L192 389L192 388L189 388L189 387L185 387L185 386L182 386L182 385L179 385L179 384L176 384L176 383L173 383L173 382L170 382L170 381L168 381L168 380L165 380L165 379L163 379L163 378L160 378L160 377L158 377L158 376L156 376L156 375L153 375L153 374L151 374L151 373L149 373L149 372L147 372L147 371L145 371L145 370L144 370L144 369L142 369L142 368L140 368L140 367L138 367L138 366L137 366L137 365L135 365L135 364L133 364L133 363L132 363L132 362L130 362L130 361L128 361L128 360L127 360L127 359L126 359L126 358L124 358L124 357L123 357L123 356L122 356L122 355L120 355L120 354L119 354L119 353L118 353L118 352L116 352L116 351L115 351L115 350L114 350L114 349L112 349L112 348L111 348L111 347L110 347L110 346L109 346L109 345L108 345L108 344L107 344L107 343L106 343L106 342L105 342L105 341L103 341L103 340L102 340L102 339L101 339L101 338L100 338L100 337L99 337L99 336L98 336L98 335L97 335L97 333L96 333L96 332L95 332L95 331L94 331L94 330L93 330L93 329L92 329L92 328L91 328L91 327L90 327L90 326L89 326L89 325L88 325L88 324L87 324L87 322L86 322L86 321L85 321L85 320L84 320L84 319L83 319L83 317L82 317L82 316L81 316L81 315L80 315L80 313L79 313L79 312L78 312L78 310L77 310L77 309L76 309L76 307L75 307L75 306L74 306L74 304L73 304L73 303L72 303L72 301L71 301L71 300L70 300L70 298L69 298L69 296L68 296L68 294L67 294L67 292L66 292L66 290L65 290L65 289L64 289L64 286L63 286L63 284L62 284L62 282L61 282L61 280L60 280L60 277L59 277L59 275L58 275L58 272L57 272L57 270L56 270L56 266L55 266L55 263L54 263L54 260L53 260L53 256L52 256L52 253L51 253L51 248L50 248L50 244L49 244L49 237L48 237L48 228L47 228L47 201L48 201L48 199L47 199L47 197L48 197L48 187L49 187L49 181L50 181L50 176L51 176L51 171L52 171L52 168L53 168L53 163L54 163L54 160L55 160L55 157L56 157L56 153L57 153L57 151L58 151L58 148L59 148L59 146L60 146L60 144L61 144L61 141L62 141L62 139L63 139L63 137L64 137L64 134L65 134L65 133L66 133L66 131L67 131L67 129L68 129L68 127L69 127L69 125L70 125L70 123L71 123L71 122L72 122L72 120L73 120L73 118L74 118L74 117L75 117L75 115L76 115L76 114L77 114L77 112L78 112L78 111L79 111L79 109L80 109L80 108L81 108L81 106L82 106L82 105L83 105L83 104L84 104L84 102L85 102L85 101L86 101L86 100L87 100L87 99L88 99L88 98L89 98L89 96L90 96L90 95L91 95L91 94L92 94L92 93L93 93L93 92L94 92L94 91L95 91L95 90L96 90L96 89L97 89L97 88L98 88L98 87L99 87L99 86L100 86L100 85L101 85L101 84L102 84L102 83L103 83L103 82L104 82L104 81L105 81L105 80L106 80L106 79L108 79L108 78L109 78L109 77L110 77L110 76L111 76L111 75L112 75L112 74L114 74L114 73L115 73L115 72L116 72L116 71L118 71L118 70L119 70L119 69L121 69L121 68L122 68L122 67L124 67L124 66L125 66L125 65L127 65L127 64L128 64L128 63L130 63L130 62L131 62L131 61L133 61L133 60L135 60L135 59L137 59L137 58L139 58L139 57L140 57L140 56L142 56L142 55L144 55L144 54L146 54L146 53L148 53L148 52L151 52L151 51L153 51L153 50L155 50L155 49L158 49L158 48L161 48L161 47L163 47L163 46L166 46L166 45L169 45L169 44L172 44L172 43L177 43L177 42L180 42L180 41L184 41L184 40L188 40L188 39L194 39L194 38L205 38L205 37L210 37L210 36ZM267 316L272 316L272 317L276 317L276 318L278 318L278 319L282 319L282 320L286 320L286 321L289 321L289 322L291 322L291 323L294 323L294 324L296 324L296 325L299 325L299 326L301 326L301 327L303 327L303 328L306 328L306 329L308 329L308 330L310 330L310 331L312 331L312 332L314 332L314 333L316 333L316 334L318 334L318 335L319 335L319 336L321 336L321 337L323 337L323 338L325 338L325 339L326 339L326 340L328 340L328 341L330 341L330 342L331 342L331 343L333 343L333 344L334 344L334 345L336 345L336 346L337 346L337 347L338 347L338 348L340 348L340 349L341 349L341 350L343 350L343 351L344 351L344 352L346 352L346 353L347 353L347 354L348 354L348 355L350 355L350 356L351 356L351 357L352 357L352 358L353 358L353 359L355 359L355 360L356 360L356 361L357 361L357 362L358 362L358 363L359 363L359 364L360 364L360 365L361 365L361 366L363 366L363 367L364 367L364 368L365 368L365 369L366 369L366 370L367 370L367 371L368 371L368 372L369 372L369 373L370 373L370 374L371 374L371 375L372 375L372 376L373 376L373 377L374 377L374 378L375 378L375 379L376 379L376 380L377 380L377 382L378 382L378 383L379 383L379 384L380 384L380 385L381 385L381 386L382 386L382 387L383 387L383 389L384 389L384 390L385 390L385 391L386 391L386 392L387 392L387 394L388 394L388 395L389 395L389 396L390 396L390 398L391 398L391 399L392 399L392 400L393 400L393 402L394 402L394 404L395 404L395 405L396 405L396 407L397 407L397 408L398 408L398 410L399 410L399 412L400 412L400 413L401 413L401 415L402 415L402 417L403 417L403 419L404 419L404 421L405 421L405 423L406 423L406 425L407 425L407 427L408 427L408 429L409 429L409 432L410 432L410 434L411 434L411 436L412 436L412 439L413 439L413 441L414 441L414 444L415 444L415 448L416 448L416 451L417 451L417 454L418 454L418 459L419 459L419 465L420 465L420 468L421 468L421 476L422 476L422 481L423 481L423 522L422 522L422 531L421 531L421 534L420 534L420 541L419 541L419 545L418 545L418 549L417 549L417 552L416 552L416 555L415 555L415 559L414 559L414 561L413 561L413 564L412 564L412 567L411 567L411 570L410 570L410 572L409 572L409 574L408 574L408 576L407 576L407 579L406 579L406 581L405 581L405 583L404 583L404 585L403 585L403 587L402 587L402 589L401 589L401 591L400 591L400 592L399 592L399 594L398 594L398 596L397 596L397 598L396 598L396 599L395 599L395 601L394 601L394 602L393 602L393 604L392 604L392 605L391 605L391 607L390 607L390 608L389 608L389 610L388 610L388 611L387 611L387 612L386 612L386 614L385 614L385 615L384 615L384 616L383 616L383 617L382 617L382 619L381 619L381 620L380 620L380 621L379 621L379 622L378 622L378 624L377 624L377 625L376 625L376 626L375 626L375 627L374 627L374 628L373 628L373 629L372 629L372 630L371 630L371 631L370 631L370 632L369 632L369 633L368 633L368 634L367 634L367 635L366 635L366 636L365 636L365 637L364 637L364 638L363 638L363 639L362 639L362 640L361 640L361 641L359 641L359 642L358 642L358 643L357 643L357 644L356 644L356 645L355 645L355 646L353 646L353 647L352 647L352 648L351 648L351 649L350 649L350 650L348 650L348 651L347 651L347 652L346 652L346 653L344 653L344 654L343 654L343 655L341 655L341 656L340 656L340 657L338 657L338 658L337 658L337 659L335 659L335 660L333 660L333 661L332 661L332 662L330 662L330 663L328 663L328 664L327 664L327 665L325 665L325 666L323 666L323 667L321 667L321 668L319 668L319 669L316 669L316 670L314 670L314 671L312 671L312 672L310 672L310 673L307 673L307 674L305 674L305 675L303 675L303 676L300 676L300 677L297 677L297 678L294 678L294 679L292 679L292 680L288 680L288 681L283 681L283 682L280 682L280 683L274 683L274 684L271 684L271 685L263 685L263 686L85 686L85 705L36 705L36 579L85 579L85 602L249 602L249 601L260 601L260 600L263 600L263 599L269 599L269 598L272 598L272 597L274 597L274 596L277 596L277 595L279 595L279 594L282 594L282 593L284 593L284 592L286 592L286 591L287 591L287 590L289 590L289 589L290 589L290 588L292 588L292 587L294 587L294 586L296 586L296 585L297 585L297 584L298 584L298 583L300 583L300 582L301 582L301 581L302 581L302 580L304 580L304 579L305 579L305 578L306 578L306 577L307 577L307 576L308 576L308 575L309 575L309 574L310 574L310 573L311 573L311 572L312 572L312 571L313 571L313 570L314 570L314 569L315 569L315 568L316 568L316 567L317 567L317 566L318 566L318 565L319 565L319 563L320 563L320 562L321 562L321 560L322 560L322 559L323 559L323 557L324 557L324 556L325 556L325 554L326 554L326 553L327 553L327 551L328 551L328 549L329 549L329 548L330 548L330 545L331 545L331 544L332 544L332 541L333 541L333 539L334 539L334 536L335 536L335 534L336 534L336 530L337 530L337 527L338 527L338 522L339 522L339 520L340 520L340 510L341 510L341 491L340 491L340 483L339 483L339 479L338 479L338 473L337 473L337 471L336 471L336 468L335 468L335 465L334 465L334 463L333 463L333 460L332 460L332 458L331 458L331 456L330 456L330 454L329 454L329 452L328 452L328 450L327 450L327 448L326 448L326 447L325 447L325 445L324 445L324 444L323 444L323 442L322 442L322 441L321 441L321 440L320 440L320 439L319 439L319 438L318 438L318 436L317 436L317 435L316 435L316 434L315 434L315 433L314 433L314 432L313 432L313 431L312 431L312 430L311 430L311 429L310 429L310 428L309 428L309 427L308 427L308 426L307 426L307 425L306 425L306 424L305 424L305 423L303 423L303 422L302 422L302 421L301 421L301 420L299 420L299 419L298 419L298 418L296 418L296 417L295 417L295 416L293 416L293 415L292 415L292 414L290 414L290 413L288 413L288 412L287 412L287 411L285 411L285 410L283 410L283 409L281 409L281 408L279 408L279 407L277 407L277 406L275 406L275 405L272 405L272 404L270 404L270 403L267 403L267 316Z" fill="url(#sbGradient)" fill-rule="evenodd"/></g></svg>
